# xmcd
#
# Track frame offsets:
#   150
#   15708
#   28115
#   42944
#   54801
#   66508
#   80063
#   98813
#   116018
#   130110
#   141417
#   154240
#
# Disc length: 2256 seconds
#
# Revision: 0
# Processed by: cddbd v1.5.2PL0 Copyright (c) Steve Scherf et al.
# Submitted via: uFREEDB ActiveX Control 1.5
#
DISCID=a508ce0c
DTITLE=ARNÔH - É Preciso Poesia
DYEAR=2011
DGENRE=Blues
TTITLE0=Conheço teu cinema
TTITLE1=Mil freses
TTITLE2=É preciso poesia
TTITLE3=Distinto cidadão
TTITLE4=Corrupção S|A
TTITLE5=Não tenho pinta de doutor
TTITLE6=Pra gente voar
TTITLE7=Todo amor de um poeta
TTITLE8=Uma peça que não se encaixa
TTITLE9=Medroso
TTITLE10=Dançar
TTITLE11=O antidoto da solidão
EXTD=
EXTT0=
EXTT1=
EXTT2=
EXTT3=
EXTT4=
EXTT5=
EXTT6=
EXTT7=
EXTT8=
EXTT9=
EXTT10=
EXTT11=
PLAYORDER=
